<?xml version="1.0" encoding="UTF-8"?>
<!DOCTYPE svg PUBLIC "-//W3C//DTD SVG 1.1//EN" "http://www.w3.org/Graphics/SVG/1.1/DTD/svg11.dtd">
<svg version="1.1" xmlns="http://www.w3.org/2000/svg" xmlns:xlink="http://www.w3.org/1999/xlink" x="0px" y="0px" width="567" height="567" viewBox="0, 0, 1134, 1134">
  <g id="Layer_two">
    <path d="M707.22,26.66 C733.27,23.31 761.146,27.229 784.756,38.839 C816.316,52.279 840.94,78.22 856.51,108.55 C865.93,129.25 871.94,151.63 872.48,174.45 C873.08,203.84 862.51,232.43 847.03,257.02 C828.1,286.73 797.41,307.83 763.93,317.91 C739.48,323.65 713.31,326.29 688.88,319.15 C677.82,316.23 667.4,311.44 656.84,307.14 C649.57,304.27 640.9,304.05 634.01,308.05 C625.03,312.73 616.9,318.87 608.38,324.31 C586,338.66 563.42,352.74 541.86,368.32 C576.04,386.75 606.58,411.68 632.04,440.95 C653.88,465.38 670.89,493.5 687.22,521.77 C701.56,547.03 716.72,571.82 730.86,597.21 C734.94,604.07 740.61,610.66 748.09,613.88 C759.77,616.54 771.94,616.42 783.59,619.44 C803.75,623.37 823.23,631.14 840.21,642.78 C875.21,667.07 899.63,706.43 904.02,748.99 C910.24,797.07 889.92,846.91 853.64,878.62 C821.1,907.9 775.13,920 732.14,913.8 C689.4,906.34 648.98,880.85 627.05,842.94 C606.96,810.29 601.4,769.66 609.39,732.4 C613.02,715.53 621.6,700.43 629.99,685.56 C634.26,678.59 640.33,671.72 639.94,662.95 C640.75,655.28 635.52,649.08 632.39,642.63 C622.8,624.48 611.91,607.09 601.74,589.26 C584.05,560.12 568.33,529.24 544.69,504.3 C526.61,485.13 505.25,468.82 481.46,457.42 C447.73,439.39 409.14,431.07 370.99,431.96 C347.27,431.69 324.11,437.59 301.65,444.66 C263.67,458.15 228.91,480.92 202.36,511.34 C191.49,524.42 180.73,537.79 173.06,553.06 C158.28,580.9 149.64,611.76 146.01,642.99 C140.17,702.91 160.08,764.42 198.36,810.67 C228.09,847.08 269.33,874.43 315.08,885.81 C323.78,888.28 333.53,889.27 340.69,895.31 C346.2,899.51 350.59,905.02 354,911.02 C367.23,933.74 380.62,956.38 393.96,979.04 C396.16,983.3 399.355,988.155 399.23,993.28 C399.049,1000.693 396.72,1003.751 384.98,1004.91 C338.361,1009.512 275.07,994.88 226.6,969.47 C192.04,952.17 160.12,929.59 133.11,901.89 C93.14,859.49 62.64,807.57 48.09,750.97 C44.69,737.12 41.15,723.23 40,708.97 C37.05,674.49 36.75,639.57 42.3,605.31 C52.64,544.89 81.45,488.51 120.93,441.95 C152.68,404.71 193,374.9 237.53,354.69 C253.87,348.04 270.27,341.41 287.23,336.49 C332.92,325.02 381.57,327.33 425.83,309.79 C450.76,299.48 473.24,284.3 495.96,269.93 C517.37,255.54 539.39,242.07 561,227.98 C570.17,222.41 577.86,212.38 576.76,201.14 C576.13,185.22 574.14,169.21 576.35,153.33 C578.2,133.08 586.93,114.33 596.9,96.92 C619.73,57.6 662.68,32.47 707.22,26.66 M716.45,103.51 C683.91,106.27 655.79,134.08 652.36,166.51 C650.07,192.62 662.48,220.06 684.99,234 C699.75,243.73 718.08,246.88 735.45,244.46 C765.6,238.61 791.36,212.34 794.47,181.43 C795.47,165.2 791.57,148.33 781.98,135.03 C767.69,114.17 742.01,100.31 716.45,103.51 M749.39,696.39 C727.69,698.57 707.45,711.5 696.19,730.14 C684.09,748.56 683.08,773.01 692.06,792.92 C703.29,819.59 732.45,837.42 761.33,834.42 C795.17,831.79 824.48,801.13 824.83,767.06 C824.07,754.82 822.11,742.14 815.42,731.61 C801.96,709.26 775.78,694 749.39,696.39 z" fill="#1A448E"/>
  </g>
  <g id="Layer_one">
    <path d="M749.58,434.67 C778.16,431.85 807.27,432.17 835.37,438.6 C867.75,445.77 898.08,460.08 926.96,476.03 C1008.41,521.9 1068.29,603.79 1087.85,695.13 C1098.23,743.66 1099.62,794.65 1088.16,843.12 C1082.82,866.14 1075.52,888.79 1065.01,910.01 C1051.57,937.42 1036.22,964.12 1016.62,987.64 C968,1046.27 898.64,1086.89 824.16,1102.24 C804.86,1106.25 785.12,1107.04 765.52,1108.32 C708.76,1109.32 650.57,1098.65 600.94,1070.14 C542,1041.94 494.39,993.51 461.29,937.7 C443.54,907.36 425.85,876.99 408.62,846.36 C404.52,839.65 401.3,832.01 394.98,827.02 C390.25,822.57 384.03,819.71 377.56,819.15 C326.19,814.75 276.51,784.51 252.91,738.05 C230.76,696.67 231.63,644.53 253,602.99 C272.69,561.36 313.15,530.27 358.62,522.67 C406.18,513.77 457.5,530.23 491.71,564.28 C505.72,579 517.97,596 524.73,615.31 C534.48,640.98 537.09,669.38 532.52,696.44 C528.79,720.24 516.51,741.52 503.17,761.18 C500.06,765.63 497.75,770.63 497.13,776.09 C496.85,785.62 503.13,793.46 507.69,801.27 C521.13,825.6 535.82,849.23 549.35,873.52 C576.15,923.4 620.29,964.53 673.63,984.41 C695.4,992.45 718.29,997.48 741.41,999.52 C833.75,1006.19 927.33,951.17 966.18,867.09 C977.21,840.84 985.27,813.02 987.5,784.55 C993.99,706.5 955.69,628.1 893.85,581.13 C869.09,562.82 840.54,550.15 810.85,542.3 C804.78,540.63 798.18,539.93 793.05,535.94 C785.12,531.27 779.96,523.36 775.41,515.61 C762.38,492.94 737.445,452.63 737.115,447.827 C736.785,443.025 741.615,435.765 749.58,434.67 M374.4,600.47 C355.62,603.6 338.24,614.89 328.03,631.02 C313.45,653.03 313.04,683.57 327.15,705.89 C340,726.96 365.12,740.65 389.96,737.88 C418.07,736.08 444.98,716.11 452.61,688.64 C455.91,678.31 455.47,667.28 454.4,656.64 C447.11,621.31 410.55,594.28 374.4,600.47 z" fill="#158EC1"/>
  </g>
  <defs/>
</svg>
